<svg width="11" height="9" xmlns="http://www.w3.org/2000/svg" xmlns:xlink="http://www.w3.org/1999/xlink" overflow="hidden"><defs><clipPath id="clip0"><rect x="0" y="0" width="11" height="9"/></clipPath></defs><g clip-path="url(#clip0)"><path d="M10.3404 0 5.50862 4.87096 0.639225 0.0454351Z" fill="#0000FF" transform="matrix(1 0 0 1.06061 0 0.00348953)"/><path d="M10.4391 8.4337 0.585956 8.4807 3.85572 4.44794 4.71429 5.30338C4.86156 5.4517 5.01353 5.6 5.1702 5.74833 5.40521 5.9943 5.62456 5.9943 5.86583 5.74833L6.97977 4.62028Z" fill="#0000FF" transform="matrix(1 0 0 1.06061 0 0.00348953)"/><path d="M11 7.79604 7.59237 4.04529 10.9671 0.640792 11 7.79447 11 7.79447Z" fill="#0000FF" transform="matrix(1 0 0 1.06061 0 0.00348953)"/><path d="M0.0329013 7.81171 0 0.683094 3.22119 3.87765Z" fill="#0000FF" transform="matrix(1 0 0 1.06061 0 0.00348953)"/></g></svg>